<?xml version="1.0" encoding="utf-8"?>
<!-- Generator: Adobe Illustrator 23.0.4, SVG Export Plug-In . SVG Version: 6.00 Build 0)  -->
<svg version="1.1" id="Layer_1" xmlns="http://www.w3.org/2000/svg" xmlns:xlink="http://www.w3.org/1999/xlink" x="0px" y="0px"
	 viewBox="0 0 504 108.9" style="enable-background:new 0 0 504 108.9;" xml:space="preserve">
<style type="text/css">
	.st0{display:none;}
	.st1{display:inline;fill:#FFFFFF;stroke:#000000;stroke-miterlimit:10;}
	.st2{display:inline;}
	.st3{font-family:'Colus-Regular';}
	.st4{font-size:72px;}
	.st5{font-family:'Palooma';}
	.st6{fill:#0067B4;}
	.st7{fill:#FFFFFF;}
	.st8{fill:#BCBEC0;}
</style>
<g class="st0">
	<polygon class="st1" points="433.4,-94.8 360.9,-94.8 288.7,16.6 216.4,-94.8 161.6,-94.8 149.6,-94.8 149.6,-86.1 157.1,-74.5 
		360.9,239.9 433.4,239.9 324.9,72.5 	"/>
</g>
<g class="st0">
	<text transform="matrix(1 0 0 1 96.5185 155.3788)" class="st2 st3 st4">Externz</text>
	<text transform="matrix(1 0 0 1 90.379 246.9136)" class="st2 st4" style="font-family:'MayekaBoldDemo';">Externz</text>
	<text transform="matrix(1 0 0 1 111.0299 89.356)" class="st2 st5 st4">Externz</text>
</g>
<g id="Layer_3" class="st0">
	<g class="st2">
		<path d="M80.7,30.9L48.5,31l-3.1,15h29.3l-9.8,22.6H40.5l-3.8,17.8H71L61.4,109H11.1L32.4,8.3h48.2L80.7,30.9L80.7,30.9z"/>
		<path class="st6" d="M155.9,8.3l-29.3,48.1l13,60.1l-23.3,0.1l-7.9-39.9l-18,32.3H67l32-52.6L83.9-0.5l23.6,0.1l9.6,36.4
			l15.1-27.8L155.9,8.3L155.9,8.3z"/>
		<path d="M217.5,31h-22l-16.7,78H158l16.7-78h-22.4l9.5-22.7h55.6V31H217.5z"/>
		<path d="M274.9,30.9L242.8,31l-3.1,14.9H269l-9.8,22.6h-24.4L231,86.3h34.3l-9.7,22.6h-50.2L226.8,8.2H275v22.7H274.9z"/>
		<path d="M305,24.8L288.9,109h-20.8L288,19.7L305,24.8z M323.8,66.2c2.6,13.9,7.3,28.1,13.9,42.8h-26c-8.9-19.2-9.4-24.9-11.8-47.3
			c9.2-7.2,13.9-11.1,14.3-11.4c6.2-5.7,9.3-10.7,9.3-15.1c0-2.8-2.9-4.1-8.8-4.1l-30.4,5.2l6.1-28h38.7c12.9,0,19.5,6.3,19.5,19
			C348.6,42,340.3,55,323.8,66.2z"/>
		<path d="M429.3,8.3L408,109h-21l6.3-29.5l-14.7-34L364.8,109h-22.6L365.3,8.3h19.8L401,42.7l7.3-34.4
			C408.3,8.3,429.3,8.3,429.3,8.3z"/>
		<path d="M493.4,8.3l-44.1,78.1h26.6l-9.8,22.6h-52.5l44.1-78h-24l9.4-22.7H493.4z"/>
	</g>
</g>
<g id="Layer_3_copy_2">
	<g>
		<path class="st6" d="M80.7,26.9L48.5,27l-3.1,15h29.3l-9.8,22.6H40.5l-3.8,17.8H71L61.4,105H11.1L32.4,4.3h48.2L80.7,26.9
			L80.7,26.9z"/>
		<path class="st6" d="M155.9,4.3l-29.3,48.1l13,52.6l-23.3,0.1l-7.9-32.3l-18,32.3H67l32-52.6L83.9,4.3l23.6,0.1l9.6,27.7
			l15.1-27.8H155.9z"/>
		<path d="M217.5,27h-22l-16.7,78H158l16.7-78h-22.4l9.5-22.7h55.6V27H217.5z"/>
		<path d="M274.9,26.9L242.8,27l-3.1,14.9H269l-9.8,22.6h-24.4L231,82.3h34.3l-9.7,22.6h-50.2L226.8,4.2H275v22.7H274.9z"/>
		<path d="M305,20.8L288.9,105h-20.8L288,15.7L305,20.8z M323.8,62.2c2.6,13.9,7.3,28.1,13.9,42.8h-26c-8.9-19.2-9.4-24.9-11.8-47.3
			c9.2-7.2,13.9-11.1,14.3-11.4c6.2-5.7,9.3-10.7,9.3-15.1c0-2.8-2.9-4.1-8.8-4.1l-30.4,5.2l6.1-28h38.7c12.9,0,19.5,6.3,19.5,19
			C348.6,38,340.3,51,323.8,62.2z"/>
		<path d="M429.3,4.3L408,105h-21l6.3-29.5l-14.7-34L364.8,105h-22.6L365.3,4.3h19.8L401,38.7l7.3-34.4
			C408.3,4.3,429.3,4.3,429.3,4.3z"/>
		<path d="M493.4,4.3l-44.1,78.1h26.6l-9.8,22.6h-52.5l44.1-78h-24l9.4-22.7H493.4z"/>
	</g>
</g>
<g id="Layer_3_copy" class="st0">
	<g class="st2">
		<path class="st7" d="M80.7,30.9L48.5,31l-3.1,15h29.3l-9.8,22.6H40.5l-3.8,17.8H71L61.4,109H11.1L32.4,8.3h48.2L80.7,30.9
			L80.7,30.9z"/>
		<path class="st8" d="M155.9,8.3l-29.3,48.1l13,60.1l-23.3,0.1l-7.9-39.9l-18,32.3H67l32-52.6L83.9-0.5l23.6,0.1l9.6,36.4
			l15.1-27.8L155.9,8.3L155.9,8.3z"/>
		<path class="st7" d="M217.5,31h-22l-16.7,78H158l16.7-78h-22.4l9.5-22.7h55.6V31H217.5z"/>
		<path class="st7" d="M274.9,30.9L242.8,31l-3.1,14.9H269l-9.8,22.6h-24.4L231,86.3h34.3l-9.7,22.6h-50.2L226.8,8.2H275v22.7H274.9
			z"/>
		<path class="st7" d="M305,24.8L288.9,109h-20.8L288,19.7L305,24.8z M323.8,66.2c2.6,13.9,7.3,28.1,13.9,42.8h-26
			c-8.9-19.2-9.4-24.9-11.8-47.3c9.2-7.2,13.9-11.1,14.3-11.4c6.2-5.7,9.3-10.7,9.3-15.1c0-2.8-2.9-4.1-8.8-4.1l-30.4,5.2l6.1-28
			h38.7c12.9,0,19.5,6.3,19.5,19C348.6,42,340.3,55,323.8,66.2z"/>
		<path class="st7" d="M429.3,8.3L408,109h-21l6.3-29.5l-14.7-34L364.8,109h-22.6L365.3,8.3h19.8L401,42.7l7.3-34.4
			C408.3,8.3,429.3,8.3,429.3,8.3z"/>
		<path class="st7" d="M493.4,8.3l-44.1,78.1h26.6l-9.8,22.6h-52.5l44.1-78h-24l9.4-22.7H493.4z"/>
	</g>
</g>
</svg>
